<?xml version="1.0" standalone="no"?>
<!DOCTYPE svg PUBLIC "-//W3C//DTD SVG 20010904//EN"
 "http://www.w3.org/TR/2001/REC-SVG-20010904/DTD/svg10.dtd">
<svg version="1.0" xmlns="http://www.w3.org/2000/svg"
 width="3350.000000pt" height="2000.000000pt" viewBox="0 0 3350.000000 2000.000000"
 preserveAspectRatio="xMidYMid meet">

<g transform="translate(0.000000,2000.000000) scale(0.100000,-0.100000)"
fill="#000000" stroke="none">
<path d="M0 10000 l0 -10000 16750 0 16750 0 0 10000 0 10000 -16750 0 -16750
0 0 -10000z m22287 2335 c47 -33 48 -100 3 -215 -12 -30 -28 -72 -36 -93 -7
-22 -63 -136 -122 -255 -96 -190 -149 -290 -231 -434 -11 -21 -30 -53 -40 -72
-146 -257 -363 -590 -461 -706 -122 -145 -139 -176 -255 -480 -37 -96 -75
-191 -85 -210 -23 -45 -35 -100 -22 -100 6 0 63 62 128 138 219 253 294 312
398 312 67 0 112 -28 136 -83 22 -50 28 -98 35 -281 7 -190 17 -204 121 -170
43 15 285 135 384 191 19 11 62 35 95 53 153 85 315 183 315 192 0 15 180 377
249 498 93 166 111 200 111 210 0 23 -58 19 -206 -14 -87 -19 -181 -37 -209
-41 -27 -3 -79 -11 -115 -17 -73 -12 -321 -17 -390 -6 -59 9 -98 24 -138 55
-84 64 -87 152 -4 95 15 -10 41 -24 57 -30 34 -13 202 -30 255 -26 19 1 76 5
125 9 129 8 523 72 625 101 73 21 125 75 226 238 86 139 108 173 239 381 149
237 227 347 291 413 63 62 81 70 127 53 59 -23 34 -121 -79 -309 -111 -184
-198 -307 -384 -548 -50 -65 -89 -125 -88 -133 4 -18 24 -17 152 8 41 9 493
98 586 116 101 20 462 87 535 99 50 9 99 18 110 20 24 4 84 13 145 22 24 3 47
7 50 9 3 1 39 6 80 10 41 4 77 8 80 10 3 1 37 6 75 9 39 4 86 9 105 11 105 15
120 15 120 1 0 -32 -38 -45 -235 -76 -110 -17 -216 -33 -235 -36 -143 -20
-398 -68 -701 -130 -146 -30 -274 -56 -285 -58 -10 -3 -53 -12 -94 -21 -41 -9
-158 -33 -260 -55 -258 -54 -279 -59 -309 -75 -49 -25 -92 -78 -142 -175 -27
-52 -82 -158 -124 -235 -128 -240 -314 -618 -405 -825 -138 -315 -162 -530
-59 -530 94 0 378 178 614 385 39 34 176 149 305 256 129 108 283 241 341 297
59 56 114 102 123 102 24 0 19 -34 -10 -69 -29 -35 -316 -292 -469 -421 -55
-46 -172 -148 -260 -226 -223 -198 -393 -324 -542 -398 -98 -50 -143 -39 -206
50 -106 149 -96 335 34 616 33 73 74 157 90 187 17 29 28 55 27 56 -2 2 -34
-16 -73 -39 -38 -24 -106 -62 -150 -86 -44 -24 -114 -62 -155 -84 -77 -43
-241 -124 -342 -170 -76 -35 -134 -42 -180 -23 -69 29 -87 99 -103 405 -7 138
-29 151 -122 73 -146 -121 -309 -331 -500 -645 -43 -71 -90 -138 -105 -149
-24 -18 -30 -18 -69 -6 -56 18 -60 38 -37 153 16 80 104 346 143 434 8 18 15
39 15 47 0 22 -537 -384 -612 -462 -22 -23 -76 -116 -135 -233 -100 -196 -157
-293 -267 -450 -253 -363 -495 -643 -721 -839 -114 -99 -288 -225 -340 -247
-81 -33 -222 -6 -256 50 -44 72 -15 143 151 365 249 333 328 413 830 836 414
349 430 365 499 484 148 257 271 608 306 872 5 43 -15 115 -38 138 -42 39 -97
33 -202 -21 -98 -50 -121 -72 -129 -118 -8 -50 -40 -70 -81 -52 -50 23 -31 34
-381 -223 -142 -105 -249 -165 -292 -165 -24 0 -42 9 -64 31 -29 29 -30 33
-25 90 3 33 2 59 -1 57 -4 -2 -104 -51 -222 -109 -236 -117 -315 -154 -435
-206 -44 -19 -89 -38 -100 -43 -95 -42 -203 -77 -267 -86 -40 -5 -54 -2 -91
19 -80 47 -130 137 -121 219 15 136 75 272 163 369 87 97 122 105 184 44 42
-43 40 -67 -14 -147 -81 -119 -159 -297 -159 -363 0 -76 55 -76 270 2 239 86
850 378 885 423 118 151 316 293 451 326 83 19 132 8 198 -45 46 -37 51 -37
96 -9 214 131 257 141 350 86 77 -47 115 -101 136 -194 29 -134 19 -196 -94
-566 -27 -86 -36 -128 -28 -131 7 -3 49 20 96 50 120 79 484 338 496 354 6 8
21 41 34 74 13 33 41 98 62 143 21 46 38 85 38 87 0 2 16 38 35 79 19 42 35
78 35 80 0 3 13 33 29 68 16 35 39 86 51 113 43 94 143 343 204 510 202 542
530 1065 741 1178 38 21 94 21 122 2z m-3441 -297 c20 -22 42 -55 49 -73 15
-34 10 -75 -9 -75 -6 -1 -36 -2 -67 -3 -82 -3 -142 -47 -370 -276 -224 -225
-359 -382 -572 -665 -82 -111 -198 -259 -256 -330 -198 -242 -677 -778 -792
-887 -47 -44 -68 -70 -64 -81 4 -11 42 -21 133 -37 207 -35 530 -99 797 -156
138 -30 288 -61 335 -69 47 -9 99 -18 115 -21 201 -36 606 -89 755 -99 108 -8
200 -16 235 -22 17 -3 108 -7 204 -9 145 -3 176 -6 190 -20 15 -15 14 -18 -6
-35 -19 -15 -49 -19 -167 -25 -79 -4 -148 -5 -153 -2 -5 3 -49 8 -98 12 -50 3
-106 8 -125 10 -19 3 -66 7 -105 10 -87 7 -170 13 -255 20 -121 11 -491 74
-865 150 -66 13 -133 26 -150 29 -16 3 -74 15 -129 26 -92 19 -159 31 -443 80
-140 25 -154 27 -258 46 -151 27 -255 12 -344 -47 -145 -98 -324 -147 -428
-116 -52 15 -122 64 -133 92 -9 25 -5 67 10 95 14 26 110 73 175 85 33 6 130
12 215 14 85 1 179 6 208 12 76 15 181 98 398 314 184 183 249 261 669 800
372 478 680 845 919 1092 128 133 168 165 245 192 67 23 93 18 137 -31z
m-10238 34 c14 -9 11 -22 -29 -110 -12 -26 -30 -67 -42 -92 -11 -25 -35 -79
-53 -120 -18 -41 -56 -127 -84 -190 -108 -242 -130 -326 -130 -512 0 -130 13
-218 48 -318 78 -224 243 -420 453 -538 58 -33 219 -89 289 -102 106 -20 291
-16 393 9 396 95 686 408 747 806 11 73 10 218 -6 498 -1 32 -6 126 -9 210 -4
84 -9 156 -12 160 -6 9 68 -2 79 -12 6 -6 10 -70 24 -346 3 -66 7 -151 9 -190
11 -184 13 -426 5 -480 -68 -449 -414 -818 -855 -910 -44 -9 -135 -18 -203
-20 -67 -1 -124 -4 -126 -6 -2 -2 -24 -121 -51 -264 -26 -143 -58 -316 -71
-385 -14 -69 -27 -138 -30 -155 -2 -16 -14 -79 -25 -139 -11 -60 -17 -112 -12
-116 4 -4 42 -15 83 -25 94 -22 252 -75 310 -105 56 -28 100 -68 100 -92 0
-65 -247 -83 -520 -38 -30 5 -71 12 -90 15 -118 18 -215 42 -355 85 -172 54
-275 113 -275 158 0 49 73 63 285 57 94 -2 190 -9 215 -14 25 -5 46 -8 47 -7
3 2 29 136 39 195 3 18 7 41 9 50 4 24 93 502 100 536 3 17 15 82 26 145 12
63 22 121 23 129 1 9 -20 21 -54 31 -136 43 -272 125 -386 232 -234 222 -346
476 -348 788 -1 215 22 309 141 570 14 30 41 91 60 134 18 44 40 94 48 110 8
17 43 96 78 176 95 213 87 200 116 200 14 0 32 -4 39 -8z m9866 -1354 c22 -31
20 -43 -22 -128 -28 -56 -43 -76 -60 -78 -14 -2 -25 3 -29 14 -8 21 22 181 38
200 17 21 56 17 73 -8z m140 -2154 c21 -8 21 -50 0 -58 -20 -8 -8888 -8 -8908
0 -19 7 -21 50 -3 57 17 8 8892 8 8911 1z"/>
<path d="M22193 12200 c-114 -113 -499 -819 -672 -1230 -34 -80 -66 -153 -71
-162 -6 -10 -6 -18 -1 -18 27 0 154 193 426 650 37 63 60 105 172 315 157 294
234 485 194 485 -5 0 -26 -18 -48 -40z"/>
<path d="M19755 10312 c-43 -9 -152 -57 -195 -85 -93 -63 -256 -228 -244 -248
9 -16 122 53 405 247 47 33 87 63 88 69 3 12 -29 22 -54 17z"/>
<path d="M19753 8983 c-275 -232 -637 -568 -768 -713 -123 -136 -301 -368
-334 -436 -51 -101 3 -117 136 -38 130 77 202 136 353 291 224 229 373 425
618 814 40 63 77 139 68 139 -3 0 -35 -26 -73 -57z"/>
<path d="M16111 9514 c-36 -7 -72 -20 -80 -29 -14 -13 -12 -15 19 -15 36 1
184 41 196 53 12 11 -66 6 -135 -9z"/>
</g>
</svg>
